<?xml version="1.0" encoding="iso-8859-1"?>
<!-- Generator: Adobe Illustrator 19.0.1, SVG Export Plug-In . SVG Version: 6.00 Build 0)  -->
<svg version="1.1" id="&#xB808;&#xC774;&#xC5B4;_1" xmlns="http://www.w3.org/2000/svg" xmlns:xlink="http://www.w3.org/1999/xlink"
	 x="0px" y="0px" viewBox="0 0 115.5 40.66" style="enable-background:new 0 0 115.5 40.66;" xml:space="preserve">
<g>
	<g id="XMLID_2_">
		<g>
			<path style="fill:#0F0F0F;" d="M115.5,13.21c0,7.07-4.91,12.3-13.48,12.3H92.2v10.51c0,2.65-1.72,4.42-4.42,4.42
				c-2.7,0-4.42-1.77-4.42-4.42V6.1c0-3.94,2.05-5.18,5.17-5.18h13.54C109.51,0.92,115.5,4.58,115.5,13.21z M100.45,18.71
				c3.56,0,6.2-2.15,6.2-5.5c0-3.88-2.75-5.5-7.11-5.5H92.2v11H100.45z"/>
			<path style="fill:#F6B657;" d="M75.52,19.85c0,10.94-6.37,20.81-19.63,20.81c-13.91,0-19.63-9.06-19.63-20.81
				C36.26,8.47,43.16,0,55.89,0C68.61,0,75.52,8.47,75.52,19.85z M55.89,33.54c8.03,0,10.78-6.25,10.78-13.69
				c0-7.45-3.56-12.73-10.78-12.73c-7.23,0-10.79,5.28-10.79,12.73C45.1,27.29,47.58,33.54,55.89,33.54z"/>
			<path style="fill:#DD2D4C;" d="M66.67,19.85c0,7.44-2.75,13.69-10.78,13.69c-8.31,0-10.79-6.25-10.79-13.69
				c0-7.45,3.56-12.73,10.79-12.73C63.11,7.12,66.67,12.4,66.67,19.85z"/>
			<path style="fill:#0F0F0F;" d="M32.03,4.26c0,0.81-0.32,1.62-0.75,2.32L20.44,24.59v11.43c0,2.65-1.73,4.42-4.42,4.42
				c-2.7,0-4.43-1.77-4.43-4.42V24.59L0.75,6.58C0.32,5.88,0,5.07,0,4.26c0-3.02,2.75-4.04,4.48-4.04c2.1,0,3.07,0.86,3.99,2.59
				l7.71,14.18l7.65-14.18c1.03-1.95,2-2.59,3.83-2.59C29.28,0.22,32.03,1.24,32.03,4.26z"/>
		</g>
	</g>
</g>
</svg>
